<?xml version="1.0" standalone="no"?><!-- Generator: Gravit.io --><svg xmlns="http://www.w3.org/2000/svg" xmlns:xlink="http://www.w3.org/1999/xlink" style="isolation:isolate" viewBox="0 0 200 200" width="200" height="200"><defs><clipPath id="_clipPath_x1oqXGdZYdLMBS9lzz5fN7Mtlnff5ekk"><rect width="200" height="200"/></clipPath></defs><g clip-path="url(#_clipPath_x1oqXGdZYdLMBS9lzz5fN7Mtlnff5ekk)"><clipPath id="_clipPath_GhVeM2IBESiqs4y8a6CKoIgnpAnyNPnU"><rect x="0" y="0" width="200" height="200" transform="matrix(1,0,0,1,0,0)" fill="rgb(255,255,255)"/></clipPath><g clip-path="url(#_clipPath_GhVeM2IBESiqs4y8a6CKoIgnpAnyNPnU)"><g><ellipse vector-effect="non-scaling-stroke" cx="100.06250000000001" cy="100" rx="21.937499999999986" ry="22.000000000000014" fill="none" stroke-width="1" stroke="rgb(0,0,0)" stroke-opacity="100" stroke-linejoin="miter" stroke-linecap="square" stroke-miterlimit="3"/><path d=" M 143.617 105 Q 143.322 106.47 143.053 107.761 C 142.669 109.598 142.324 111.163 142.017 112.456 C 141.566 114.354 141.198 115.665 140.912 116.39 C 139.512 119.936 137.613 123.232 135.217 126.277 C 133.25 128.776 130.948 131.106 128.31 133.268 C 126.352 134.873 124.208 136.385 121.88 137.803 C 120.036 138.927 118.076 139.993 116 141 M 46 55 L 94 27 Q 99.875 25.5 106 27 L 127 39 L 160 58 Q 165.75 62.5 166 72 Q 166.25 81.5 166 130 Q 165.875 136.875 160 142 L 108 172 Q 98.875 175.5 93 172 L 78 163 L 78 151.25 L 78 138 M 55.973 98.4 C 55.995 97.595 56.038 96.795 56.098 96 M 56.098 96 C 57.908 74.131 76.166 56.636 98.849 56.055 C 123.117 55.434 143.319 74.408 143.933 98.4 C 143.991 100.638 143.876 102.84 143.617 105 M 56.125 98.125 L 56.125 138.75 L 56.125 150.625 L 39.375 140.375 Q 34.25 136 34.25 122.75 C 34.25 118.822 34.25 113.155 34.25 105.75 C 34.25 101.557 34.25 96.807 34.25 91.5 C 34.25 86.705 34.25 81.455 34.25 75.75 Q 34.25 72.889 34.25 69.875 M 46.1 55 Q 34.546 61 34.3 70.625 M 115.75 141.125 Q 97.25 149.5 78 137.5" fill-rule="evenodd" fill="none" vector-effect="non-scaling-stroke" stroke-width="1" stroke="rgb(0,0,0)" stroke-opacity="100" stroke-linejoin="miter" stroke-linecap="square" stroke-miterlimit="3"/></g></g></g></svg>